<?xml version="1.0" encoding="UTF-8" standalone="no"?>
<!-- Created with Inkscape (http://www.inkscape.org/) -->

<svg
   width="240"
   height="64"
   viewBox="0 0 203.47122 54.258992"
   version="1.1"
   id="svg1"
   inkscape:version="1.3 (0e150ed6c4, 2023-07-21)"
   sodipodi:docname="logo3.svg"
   xmlns:inkscape="http://www.inkscape.org/namespaces/inkscape"
   xmlns:sodipodi="http://sodipodi.sourceforge.net/DTD/sodipodi-0.dtd"
   xmlns="http://www.w3.org/2000/svg"
   xmlns:svg="http://www.w3.org/2000/svg">
  <sodipodi:namedview
     id="namedview1"
     pagecolor="#ffffff"
     bordercolor="#111111"
     borderopacity="1"
     inkscape:showpageshadow="0"
     inkscape:pageopacity="0"
     inkscape:pagecheckerboard="1"
     inkscape:deskcolor="#d1d1d1"
     inkscape:document-units="mm"
     inkscape:zoom="6.4818462"
     inkscape:cx="111.23374"
     inkscape:cy="48.057296"
     inkscape:window-width="3840"
     inkscape:window-height="2054"
     inkscape:window-x="1909"
     inkscape:window-y="-11"
     inkscape:window-maximized="1"
     inkscape:current-layer="g8" />
  <defs
     id="defs1">
    <inkscape:perspective
       sodipodi:type="inkscape:persp3d"
       inkscape:vp_x="0 : 27.129496 : 1"
       inkscape:vp_y="0 : 1000 : 0"
       inkscape:vp_z="203.47122 : 27.129496 : 1"
       inkscape:persp3d-origin="101.73561 : 18.086331 : 1"
       id="perspective11" />
    <rect
       x="13.576379"
       y="187.60088"
       width="294.36057"
       height="183.89822"
       id="rect3" />
    <rect
       x="37.643597"
       y="229.56422"
       width="177.72714"
       height="27.769867"
       id="rect2" />
    <rect
       x="-61.710812"
       y="225.86157"
       width="160.4481"
       height="41.963352"
       id="rect1" />
  </defs>
  <g
     inkscape:label="Layer 1"
     inkscape:groupmode="layer"
     id="layer1">
    <text
       xml:space="preserve"
       transform="matrix(0.26458333,0,0,0.26458333,-2.8863344,-38.657215)"
       id="text1"
       style="white-space:pre;shape-inside:url(#rect1);display:inline;fill:#000000" />
    <text
       xml:space="preserve"
       transform="matrix(0.26458333,0,0,0.26458333,-2.8863344,-38.657215)"
       id="text3"
       style="white-space:pre;shape-inside:url(#rect3);display:inline;fill:#000000" />
    <g
       id="g8"
       transform="translate(0,2.5433902)">
      <path
         style="font-style:italic;font-size:52.3526px;font-family:Panton;-inkscape-font-specification:'Panton, Italic';letter-spacing:0.0490805px;word-spacing:-8.6814px;stroke-width:0.306346"
         d="m 26.000823,-0.11074238 h -5.915844 c -1.675283,0 -2.303514,0.5758786 -2.565277,2.19880918 L 11.708563,34.860794 c -0.261763,1.622931 0.157058,2.19881 1.832341,2.19881 h 20.73163 c 1.675283,0 2.303514,-0.575879 2.61763,-2.19881 l 0.837641,-4.764086 c 0.314116,-1.675283 -0.157057,-2.198809 -1.832341,-2.198809 H 23.33084 L 27.885517,2.0880668 C 28.14728,0.46513622 27.676106,-0.11074238 26.000823,-0.11074238 Z m 35.230017,0 H 48.509158 c -1.675283,0 -2.303514,0.5758786 -2.61763,2.19880918 L 40.132742,34.860794 c -0.314115,1.622931 0.157058,2.19881 1.832341,2.19881 h 12.87874 c 10.365815,0 16.805185,-4.81644 18.428115,-13.873439 l 1.361168,-7.85289 C 76.256036,6.2762748 71.596655,-0.11074238 61.23084,-0.11074238 Z m 3.141156,14.81578538 -1.308815,7.538775 c -0.680584,3.717034 -2.82704,5.654081 -7.067601,5.654081 H 51.702667 L 55.053233,9.0509626 h 4.240561 c 4.240561,0 5.758786,1.9370464 5.078202,5.6540804 z M 81.435672,1.9833616 75.624533,34.9655 c -0.261763,1.570578 0.157058,2.094104 1.727636,2.094104 h 6.177607 c 1.570578,0 2.198809,-0.523526 2.460572,-2.094104 L 91.801487,1.9833616 c 0.314115,-1.57057798 -0.157058,-2.09410398 -1.727636,-2.09410398 h -6.177607 c -1.570578,0 -2.146457,0.523526 -2.460572,2.09410398 z m 25.131758,-2.09410398 h -5.91585 c -1.675279,0 -2.303511,0.5758786 -2.565274,2.19880918 L 92.275168,34.860794 c -0.261763,1.622931 0.157058,2.19881 1.832341,2.19881 h 20.731631 c 1.67528,0 2.30351,-0.575879 2.61763,-2.19881 l 0.83764,-4.764086 c 0.31412,-1.675283 -0.15706,-2.198809 -1.83234,-2.198809 h -12.56462 l 4.55467,-25.8098322 c 0.26176,-1.62293058 -0.20941,-2.19880918 -1.88469,-2.19880918 z M 153.83854,34.913147 147.60858,1.6168934 c -0.26176,-1.36116758 -0.94234,-1.72763578 -2.46057,-1.72763578 h -5.91584 c -1.51823,0 -2.25116,0.3141156 -3.03645,1.83234098 L 118.29113,34.913147 c -0.78529,1.41352 -0.62823,2.146457 0.9947,2.146457 h 5.75878 c 2.61763,0 3.40292,-0.575879 4.18821,-2.19881 l 1.83234,-3.769387 h 11.36052 l 0.52352,3.769387 c 0.15706,1.622931 0.83764,2.19881 3.50763,2.19881 h 5.44467 c 1.62293,0 2.19881,-0.732937 1.93704,-2.146457 z m -13.19285,-18.166352 0.83764,6.125254 h -6.49172 l 2.98409,-6.177607 c 1.67529,-3.507624 2.35587,-7.2770112 2.35587,-7.2770112 h 0.47118 c 0,0 -0.57588,3.7693872 -0.15706,7.3293642 z m 39.83704,-16.90988998 h -15.33931 c -1.67528,0 -2.30351,0.5758786 -2.61763,2.25116178 L 156.767,34.860794 c -0.31411,1.622931 0.15706,2.19881 1.83235,2.19881 h 15.70578 c 7.38171,0 13.2452,-3.193509 14.44931,-9.946994 0.78529,-4.554677 -0.52352,-7.957596 -3.61233,-9.423468 l 0.0524,-0.209411 c 2.98409,-1.832341 4.44997,-3.82174 5.13055,-7.329364 1.09941,-6.2299592 -2.56528,-10.31346198 -9.84229,-10.31346198 z M 179.54039,11.197419 c -0.36647,2.041752 -1.62294,2.827041 -3.71704,2.827041 h -5.02585 l 0.9947,-5.7587864 h 5.02585 c 2.14646,0 3.0888,0.8899942 2.72234,2.9317454 z m -1.36117,14.29226 c -0.36647,2.198809 -1.67529,3.088803 -3.87409,3.088803 h -6.07291 l 1.09941,-6.125254 h 6.02055 c 2.25116,0 3.24586,0.942347 2.82704,3.036451 z m 19.68134,1.622931 h -1.9894 c -3.0888,0 -4.29291,1.047052 -4.81643,4.135855 l -0.41883,2.146457 c -0.52352,3.088803 0.31412,4.083502 3.45528,4.083502 h 1.98939 c 3.08881,0 4.24057,-0.994699 4.81644,-4.083502 l 0.36647,-2.146457 c 0.57588,-3.088803 -0.26176,-4.135855 -3.40292,-4.135855 z"
         id="text4"
         transform="scale(1.005626,0.99440548)"
         aria-label="LDI LAB." />
      <path
         style="font-size:11.7135px;font-family:Romero;-inkscape-font-specification:'Romero, Normal';letter-spacing:0.0462375px;word-spacing:-1.70835px;fill:#ff6600;stroke-width:0.924751"
         d="M 2.1973822,47.274219 V 40.937215 H 0.33493572 v 8.19945 H 6.9999172 v -1.862446 z m 10.1666818,-6.32529 h -1.862446 l -3.3969152,8.187736 h 1.8624465 l 0.491967,-1.17135 h 3.9474497 l 0.491967,1.17135 h 1.862446 z m -2.131857,5.142226 1.194777,-2.893234 1.206491,2.893234 z M 22.09737,40.948929 v 5.528772 l -3.877168,-5.528772 h -1.862447 v 8.187736 h 1.862447 v -5.528772 l 3.877168,5.528772 h 1.862447 V 40.948929 Z M 33.341715,44.53326 H 28.53918 v 1.87416 h 2.635537 c -0.316264,0.655956 -0.913653,1.159636 -1.897587,1.159636 -1.499328,0 -2.553543,-1.030788 -2.553543,-2.530116 0,-1.487614 1.054215,-2.518402 2.553543,-2.518402 0.925367,0 1.721885,0.398259 2.166998,1.089355 l 1.569609,-0.995647 C 32.627191,42.003144 32.08837,41.499463 31.444128,41.159772 30.799885,40.82008 30.061935,40.644378 29.27713,40.644378 c -1.229917,0 -2.354413,0.445113 -3.162645,1.253344 -0.808231,0.808232 -1.253344,1.921014 -1.253344,3.150932 0,1.218204 0.445113,2.330986 1.253344,3.139218 0.808232,0.808231 1.932728,1.253344 3.162645,1.253344 0.609102,0 1.17135,-0.117135 1.686744,-0.339691 0.374832,-0.175703 0.726237,-0.409973 1.030788,-0.691097 l 0.550535,0.737951 h 0.796518 v -4.099725 c 0,0 0,0 0,0 v 0 z m 6.406662,-3.584331 v 4.790821 c 0,1.218204 -0.609102,1.827306 -1.803879,1.827306 -1.194777,0 -1.803879,-0.609102 -1.803879,-1.827306 v -4.790821 h -1.862447 v 4.790821 c 0,1.147923 0.363119,2.096717 1.065929,2.752673 0.644242,0.620815 1.546182,0.948793 2.600397,0.948793 1.054215,0 1.956154,-0.327978 2.600397,-0.948793 0.70281,-0.655956 1.077642,-1.60475 1.077642,-2.752673 v -4.790821 z m 7.179753,0 h -1.862446 l -3.396915,8.187736 h 1.862446 l 0.491967,-1.17135 h 3.94745 l 0.491967,1.17135 h 1.862446 z m -2.131857,5.142226 1.194777,-2.893234 1.206491,2.893234 z M 58.605867,44.53326 h -4.802535 v 1.87416 h 2.635538 c -0.316265,0.655956 -0.913653,1.159636 -1.897587,1.159636 -1.499328,0 -2.553543,-1.030788 -2.553543,-2.530116 0,-1.487614 1.054215,-2.518402 2.553543,-2.518402 0.925366,0 1.721884,0.398259 2.166997,1.089355 l 1.569609,-0.995647 c -0.386545,-0.609102 -0.925366,-1.112783 -1.569609,-1.452474 -0.644242,-0.339692 -1.382193,-0.515394 -2.166997,-0.515394 -1.229918,0 -2.354414,0.445113 -3.162645,1.253344 -0.808232,0.808232 -1.253345,1.921014 -1.253345,3.150932 0,1.218204 0.445113,2.330986 1.253345,3.139218 0.808231,0.808231 1.932727,1.253344 3.162645,1.253344 0.609102,0 1.17135,-0.117135 1.686744,-0.339691 0.374832,-0.175703 0.726237,-0.409973 1.030788,-0.691097 l 0.550534,0.737951 h 0.796518 v -4.099725 c 0,0 0,0 0,0 v 0 z m 2.916039,2.740959 v -1.40562 h 4.779108 v -1.87416 h -4.779108 v -1.183064 h 4.966524 v -1.87416 h -6.82897 v 8.19945 h 6.946105 V 47.274219 Z M 76.480641,47.14537 c 0.210843,-0.421686 0.363119,-0.890226 0.4334,-1.370479 L 75.192156,45.50548 c -0.04685,0.281124 -0.117135,0.538821 -0.23427,0.773091 -0.08199,-0.117135 -0.175702,-0.23427 -0.257697,-0.363118 -0.163989,-0.23427 -0.316264,-0.46854 -0.445113,-0.691097 0.363119,-0.210843 0.714524,-0.433399 1.007361,-0.691096 0.281124,-0.23427 0.491967,-0.480254 0.644243,-0.737951 0.187416,-0.327978 0.292837,-0.679383 0.292837,-1.042501 0,-0.620816 -0.23427,-1.17135 -0.655956,-1.557896 -0.363118,-0.351405 -0.878512,-0.550534 -1.393906,-0.550534 -1.323626,0 -2.225565,1.112782 -2.225565,2.764386 0,0.339691 0.04685,0.691096 0.140562,1.054215 -0.292838,0.187416 -0.585675,0.386545 -0.843372,0.609102 -0.655956,0.573961 -0.983934,1.241631 -0.983934,1.956154 0,0.316265 0.05857,0.620816 0.187416,0.90194 0.140562,0.292837 0.327978,0.538821 0.585675,0.749664 0.491967,0.409972 1.159636,0.632529 1.932727,0.632529 0.515394,0 1.019075,-0.09371 1.475901,-0.281124 0.163989,-0.05857 0.316265,-0.128849 0.46854,-0.210843 0.245984,0.245983 0.46854,0.456826 0.679383,0.644242 l 1.17135,-1.288485 C 76.574349,48.023883 76.37522,47.84818 76.17609,47.637337 c 0.105422,-0.152275 0.210843,-0.316264 0.304551,-0.491967 z m -3.537477,0.421686 c -0.351405,0 -0.644242,-0.08199 -0.808231,-0.222556 -0.105422,-0.08199 -0.163989,-0.187416 -0.163989,-0.316265 0,-0.316264 0.339691,-0.632529 0.773091,-0.925366 0.163989,0.26941 0.339691,0.550534 0.527107,0.819945 0.128849,0.187416 0.269411,0.363118 0.398259,0.527107 -0.222556,0.08199 -0.46854,0.117135 -0.726237,0.117135 z m 0.726237,-4.029444 c 0,-0.04685 0,-0.09371 0,-0.128848 0,-0.363119 0.07028,-0.66767 0.187416,-0.855086 0.09371,-0.140562 0.175703,-0.163989 0.292838,-0.163989 0.05857,0 0.304551,0.01171 0.304551,0.363119 0,0.222556 -0.351405,0.50368 -0.784805,0.784804 z m 14.091935,-1.429047 c -0.761377,-0.749664 -1.803879,-1.159636 -2.951802,-1.159636 h -2.178711 v -0.01171 h -1.862446 v 8.211164 h 1.862446 v -0.01171 h 2.178711 c 1.147923,0 2.190425,-0.409972 2.951802,-1.159636 0.749664,-0.761378 1.17135,-1.792166 1.17135,-2.940089 0,-1.136209 -0.421686,-2.166997 -1.17135,-2.928375 z m -2.951802,5.165654 h -2.178711 v -4.462844 h 2.178711 c 1.323626,0 2.248992,0.913653 2.248992,2.225565 0,1.323626 -0.925366,2.237279 -2.248992,2.237279 z m 9.159322,-6.32529 h -1.862447 l -3.396915,8.187736 h 1.862447 l 0.491967,-1.17135 h 3.947449 l 0.491967,1.17135 h 1.862447 z m -2.131857,5.142226 1.194777,-2.893234 1.20649,2.893234 z m 4.462241,-5.15394 v 1.87416 h 3.01037 v 6.32529 h 1.86245 v -6.32529 h 3.01037 v -1.87416 z m 12.07602,0.01171 h -1.86245 l -3.39691,8.187736 h 1.86244 l 0.49197,-1.17135 h 3.94745 l 0.49197,1.17135 h 1.86244 z m -2.13186,5.142226 1.19478,-2.893234 1.20649,2.893234 z m 10.76529,3.057224 v -8.19945 h -1.86244 v 8.19945 z m 6.96892,-8.19945 v 5.528772 l -3.87717,-5.528772 H 118.238 v 8.187736 h 1.86244 v -5.528772 l 3.87717,5.528772 h 1.86245 v -8.187736 z m 2.54121,-0.01171 v 1.87416 h 3.01037 v 6.32529 h 1.86245 v -6.32529 h 3.01037 v -1.87416 z m 10.42441,6.337004 v -1.40562 h 4.77911 v -1.87416 h -4.77911 v -1.183064 h 4.96653 v -1.87416 h -6.82897 v 8.19945 h 6.9461 v -1.862446 z m 7.99971,0 v -6.337004 h -1.86244 v 8.19945 h 6.66498 v -1.862446 z m 7.34374,0 v -6.337004 h -1.86245 v 8.19945 h 6.66498 v -1.862446 z m 7.34373,1.87416 v -8.19945 h -1.86245 v 8.19945 z m 9.3819,-4.615119 h -4.80253 v 1.87416 h 2.63553 c -0.31626,0.655956 -0.91365,1.159636 -1.89758,1.159636 -1.49933,0 -2.55355,-1.030788 -2.55355,-2.530116 0,-1.487614 1.05422,-2.518402 2.55355,-2.518402 0.92536,0 1.72188,0.398259 2.167,1.089355 l 1.5696,-0.995647 c -0.38654,-0.609102 -0.92536,-1.112783 -1.5696,-1.452474 -0.64425,-0.339692 -1.3822,-0.515394 -2.167,-0.515394 -1.22992,0 -2.35442,0.445113 -3.16265,1.253344 -0.80823,0.808232 -1.25334,1.921014 -1.25334,3.150932 0,1.218204 0.44511,2.330986 1.25334,3.139218 0.80823,0.808231 1.93273,1.253344 3.16265,1.253344 0.6091,0 1.17135,-0.117135 1.68674,-0.339691 0.37483,-0.175703 0.72624,-0.409973 1.03079,-0.691097 l 0.55053,0.737951 h 0.79652 v -4.099725 c 0,0 0,0 0,0 v 0 z m 2.91604,2.740959 v -1.40562 h 4.77911 v -1.87416 h -4.77911 v -1.183064 h 4.96653 v -1.87416 h -6.82897 v 8.19945 h 6.9461 v -1.862446 z m 11.8769,-6.32529 v 5.528772 l -3.87717,-5.528772 h -1.86245 v 8.187736 h 1.86245 v -5.528772 l 3.87717,5.528772 h 1.86244 v -8.187736 z m 9.34675,5.528772 c -0.44511,0.691096 -1.24163,1.089355 -2.167,1.089355 -1.49932,0 -2.55354,-1.030788 -2.55354,-2.518402 0,-1.499328 1.05422,-2.530116 2.55354,-2.530116 0.92537,0 1.72189,0.398259 2.167,1.089355 l 1.56961,-0.995647 c -0.38654,-0.609102 -0.92537,-1.112783 -1.56961,-1.452474 -0.64424,-0.339692 -1.38219,-0.515394 -2.167,-0.515394 -1.22991,0 -2.35441,0.445113 -3.16264,1.253344 -0.80823,0.808232 -1.25334,1.921014 -1.25334,3.139218 0,1.229918 0.44511,2.3427 1.25334,3.150932 0.80823,0.808231 1.93273,1.253344 3.16264,1.253344 0.78481,0 1.52276,-0.175702 2.167,-0.515394 0.64424,-0.339691 1.18307,-0.843372 1.56961,-1.452474 z m 4.19281,0.796518 v -1.40562 h 4.77911 v -1.87416 h -4.77911 v -1.183064 h 4.96653 v -1.87416 h -6.82897 v 8.19945 h 6.9461 v -1.862446 z"
         id="text5"
         transform="scale(1.0043691,0.9956499)"
         aria-label="Language &amp; Data Intelligence" />
      <path
         id="rect4"
         style="fill:#ff6600;stroke-width:2.25019"
         d="M 5.8602565,0 H 13.045935 L 7.1856784,38.207672 H 0 Z"
         sodipodi:nodetypes="ccccc" />
    </g>
  </g>
</svg>
