<?xml version="1.0" encoding="UTF-8" standalone="no"?>
<!-- Created with Inkscape (http://www.inkscape.org/) -->

<svg
   width="240"
   height="64"
   viewBox="0 0 203.47122 54.258992"
   version="1.1"
   id="svg1"
   inkscape:version="1.3 (0e150ed6c4, 2023-07-21)"
   sodipodi:docname="logo3.svg"
   xmlns:inkscape="http://www.inkscape.org/namespaces/inkscape"
   xmlns:sodipodi="http://sodipodi.sourceforge.net/DTD/sodipodi-0.dtd"
   xmlns="http://www.w3.org/2000/svg"
   xmlns:svg="http://www.w3.org/2000/svg">
  <sodipodi:namedview
     id="namedview1"
     pagecolor="#ffffff"
     bordercolor="#111111"
     borderopacity="1"
     inkscape:showpageshadow="0"
     inkscape:pageopacity="0"
     inkscape:pagecheckerboard="1"
     inkscape:deskcolor="#d1d1d1"
     inkscape:document-units="mm"
     inkscape:zoom="6.4818462"
     inkscape:cx="123.11307"
     inkscape:cy="40.806275"
     inkscape:window-width="3840"
     inkscape:window-height="2054"
     inkscape:window-x="1909"
     inkscape:window-y="-11"
     inkscape:window-maximized="1"
     inkscape:current-layer="g8" />
  <defs
     id="defs1">
    <inkscape:perspective
       sodipodi:type="inkscape:persp3d"
       inkscape:vp_x="0 : 27.129496 : 1"
       inkscape:vp_y="0 : 1000 : 0"
       inkscape:vp_z="203.47122 : 27.129496 : 1"
       inkscape:persp3d-origin="101.73561 : 18.086331 : 1"
       id="perspective11" />
    <rect
       x="13.576379"
       y="187.60088"
       width="294.36057"
       height="183.89822"
       id="rect3" />
    <rect
       x="37.643597"
       y="229.56422"
       width="177.72714"
       height="27.769867"
       id="rect2" />
    <rect
       x="-61.710812"
       y="225.86157"
       width="160.4481"
       height="41.963352"
       id="rect1" />
  </defs>
  <g
     inkscape:label="Layer 1"
     inkscape:groupmode="layer"
     id="layer1">
    <text
       xml:space="preserve"
       transform="matrix(0.26458333,0,0,0.26458333,-2.8863344,-38.657215)"
       id="text1"
       style="white-space:pre;shape-inside:url(#rect1);display:inline;fill:#000000" />
    <text
       xml:space="preserve"
       transform="matrix(0.26458333,0,0,0.26458333,-2.8863344,-38.657215)"
       id="text3"
       style="white-space:pre;shape-inside:url(#rect3);display:inline;fill:#000000" />
    <g
       id="g8"
       transform="translate(0,2.5433902)">
      <text
         xml:space="preserve"
         style="font-style:italic;font-variant:normal;font-weight:900;font-stretch:normal;font-size:54.3649px;font-family:'Uni Sans';-inkscape-font-specification:'Uni Sans, Heavy Italic';font-variant-ligatures:normal;font-variant-caps:normal;font-variant-numeric:normal;font-variant-east-asian:normal;word-spacing:-9.01509px;fill:#000000;stroke-width:0.318121"
         x="11.4395"
         y="28.090752"
         id="text4"
         transform="scale(1.005626,0.99440548)"><tspan
           sodipodi:role="line"
           style="font-style:italic;font-variant:normal;font-weight:normal;font-stretch:normal;font-size:54.3649px;font-family:Panton;-inkscape-font-specification:'Panton, Italic';font-variant-ligatures:normal;font-variant-caps:normal;font-variant-numeric:normal;font-variant-east-asian:normal;letter-spacing:0.050967px;word-spacing:-9.01509px;stroke-width:0.318121"
           x="0"
           y="0"
           id="tspan7"
           rotate="0"><tspan
             id="tspan6"
             style="font-style:italic;font-variant:normal;font-weight:normal;font-stretch:normal;font-size:54.3649px;font-family:Panton;-inkscape-font-specification:'Panton, Italic';font-variant-ligatures:normal;font-variant-caps:normal;font-variant-numeric:normal;font-variant-east-asian:normal;letter-spacing:0.050967px;word-spacing:-9.01509px;stroke-width:0.318121"
             rotate="0" /></tspan></text>
      <g
         id="g2"
         transform="matrix(1.0021182,0,0,1.1728286,0,-4.9047356)">
        <path
           d="M 1.8624465,45.571216 V 39.234212 H 0 v 8.19945 h 6.6649815 v -1.862446 z m 10.1666825,-6.32529 h -1.862447 l -3.3969149,8.187736 h 1.8624465 l 0.491967,-1.17135 H 13.07163 l 0.491967,1.17135 h 1.862447 z m -2.1318574,5.142226 1.1947774,-2.893234 1.20649,2.893234 z M 21.762435,39.245926 v 5.528772 L 17.885266,39.245926 H 16.02282 v 8.187736 h 1.862446 V 41.90489 l 3.877169,5.528772 h 1.862446 v -8.187736 z m 11.244344,3.584331 h -4.802535 v 1.87416 h 2.635538 c -0.316265,0.655956 -0.913653,1.159636 -1.897587,1.159636 -1.499328,0 -2.553543,-1.030788 -2.553543,-2.530116 0,-1.487614 1.054215,-2.518402 2.553543,-2.518402 0.925366,0 1.721884,0.398259 2.166997,1.089355 l 1.569609,-0.995647 c -0.386545,-0.609102 -0.925366,-1.112783 -1.569609,-1.452474 -0.644242,-0.339692 -1.382193,-0.515394 -2.166997,-0.515394 -1.229918,0 -2.354414,0.445113 -3.162645,1.253344 -0.808232,0.808232 -1.253345,1.921014 -1.253345,3.150932 0,1.218204 0.445113,2.330986 1.253345,3.139218 0.808231,0.808231 1.932727,1.253344 3.162645,1.253344 0.609102,0 1.17135,-0.117135 1.686744,-0.339691 0.374832,-0.175703 0.726237,-0.409973 1.030788,-0.691097 l 0.550534,0.737951 h 0.796518 v -4.099725 c 0,0 0,0 0,0 v 0 z m 6.406662,-3.584331 v 4.790821 c 0,1.218204 -0.609102,1.827306 -1.803879,1.827306 -1.194777,0 -1.803879,-0.609102 -1.803879,-1.827306 v -4.790821 h -1.862447 v 4.790821 c 0,1.147923 0.363119,2.096717 1.065929,2.752673 0.644242,0.620815 1.546182,0.948793 2.600397,0.948793 1.054215,0 1.956154,-0.327978 2.600397,-0.948793 0.70281,-0.655956 1.077642,-1.60475 1.077642,-2.752673 v -4.790821 z m 7.179754,0 h -1.862447 l -3.396915,8.187736 h 1.862447 l 0.491967,-1.17135 h 3.947449 l 0.491967,1.17135 h 1.862447 z m -2.131857,5.142226 1.194777,-2.893234 1.20649,2.893234 z m 13.809594,-1.557895 h -4.802535 v 1.87416 h 2.635537 c -0.316264,0.655956 -0.913653,1.159636 -1.897587,1.159636 -1.499328,0 -2.553543,-1.030788 -2.553543,-2.530116 0,-1.487614 1.054215,-2.518402 2.553543,-2.518402 0.925367,0 1.721885,0.398259 2.166998,1.089355 l 1.569609,-0.995647 c -0.386546,-0.609102 -0.925367,-1.112783 -1.569609,-1.452474 -0.644243,-0.339692 -1.382193,-0.515394 -2.166998,-0.515394 -1.229917,0 -2.354413,0.445113 -3.162645,1.253344 -0.808231,0.808232 -1.253344,1.921014 -1.253344,3.150932 0,1.218204 0.445113,2.330986 1.253344,3.139218 0.808232,0.808231 1.932728,1.253344 3.162645,1.253344 0.609102,0 1.17135,-0.117135 1.686744,-0.339691 0.374832,-0.175703 0.726237,-0.409973 1.030788,-0.691097 l 0.550535,0.737951 h 0.796518 v -4.099725 c 0,0 0,0 0,0 v 0 z m 2.916038,2.740959 v -1.40562 h 4.779108 v -1.87416 H 61.18697 v -1.183064 h 4.966524 v -1.87416 h -6.82897 v 8.19945 h 6.946105 v -1.862446 z m 14.958736,-0.128849 c 0.210843,-0.421686 0.363118,-0.890226 0.433399,-1.370479 l -1.721884,-0.269411 c -0.04685,0.281124 -0.117135,0.538821 -0.23427,0.773091 -0.082,-0.117135 -0.175703,-0.23427 -0.257697,-0.363118 -0.163989,-0.23427 -0.316265,-0.46854 -0.445113,-0.691097 0.363118,-0.210843 0.714523,-0.433399 1.007361,-0.691096 0.281124,-0.23427 0.491967,-0.480254 0.644242,-0.737951 0.187416,-0.327978 0.292838,-0.679383 0.292838,-1.042501 0,-0.620816 -0.23427,-1.17135 -0.655956,-1.557896 -0.363119,-0.351405 -0.878513,-0.550534 -1.393907,-0.550534 -1.323625,0 -2.225565,1.112782 -2.225565,2.764386 0,0.339691 0.04685,0.691096 0.140562,1.054215 -0.292837,0.187416 -0.585675,0.386545 -0.843372,0.609102 -0.655956,0.573961 -0.983934,1.241631 -0.983934,1.956154 0,0.316265 0.05857,0.620816 0.187416,0.90194 0.140562,0.292837 0.327978,0.538821 0.585675,0.749664 0.491967,0.409972 1.159637,0.632529 1.932728,0.632529 0.515394,0 1.019074,-0.09371 1.475901,-0.281124 0.163989,-0.05857 0.316264,-0.128849 0.46854,-0.210843 0.245983,0.245983 0.46854,0.456826 0.679383,0.644242 l 1.17135,-1.288485 c -0.163989,-0.152275 -0.363119,-0.327978 -0.562248,-0.538821 0.105421,-0.152275 0.210843,-0.316264 0.304551,-0.491967 z m -3.537477,0.421686 c -0.351405,0 -0.644243,-0.08199 -0.808232,-0.222556 -0.105421,-0.08199 -0.163989,-0.187416 -0.163989,-0.316265 0,-0.316264 0.339692,-0.632529 0.773091,-0.925366 0.163989,0.26941 0.339692,0.550534 0.527108,0.819945 0.128848,0.187416 0.26941,0.363118 0.398259,0.527107 -0.222557,0.08199 -0.46854,0.117135 -0.726237,0.117135 z m 0.726237,-4.029444 c 0,-0.04685 0,-0.09371 0,-0.128848 0,-0.363119 0.07028,-0.66767 0.187416,-0.855086 0.09371,-0.140562 0.175702,-0.163989 0.292837,-0.163989 0.05857,0 0.304551,0.01171 0.304551,0.363119 0,0.222556 -0.351405,0.50368 -0.784804,0.784804 z m 14.091935,-1.429047 c -0.761378,-0.749664 -1.803879,-1.159636 -2.951802,-1.159636 h -2.178711 v -0.01171 h -1.862447 v 8.211164 h 1.862447 v -0.01171 h 2.178711 c 1.147923,0 2.190424,-0.409972 2.951802,-1.159636 0.749664,-0.761378 1.17135,-1.792166 1.17135,-2.940089 0,-1.136209 -0.421686,-2.166997 -1.17135,-2.928375 z m -2.951802,5.165654 h -2.178711 v -4.462844 h 2.178711 c 1.323625,0 2.248992,0.913653 2.248992,2.225565 0,1.323626 -0.925367,2.237279 -2.248992,2.237279 z m 9.159321,-6.32529 h -1.862446 l -3.396915,8.187736 h 1.862446 l 0.491967,-1.17135 h 3.94745 l 0.491967,1.17135 h 1.862446 z m -2.131857,5.142226 1.194777,-2.893234 1.206491,2.893234 z m 4.462242,-5.15394 v 1.87416 h 3.010369 v 6.32529 h 1.862446 v -6.32529 h 3.01037 v -1.87416 z m 12.076015,0.01171 h -1.86244 l -3.39692,8.187736 h 1.86245 l 0.49196,-1.17135 h 3.94745 l 0.49197,1.17135 h 1.86245 z m -2.13185,5.142226 1.19477,-2.893234 1.20649,2.893234 z m 10.76529,3.057224 v -8.19945 h -1.86245 v 8.19945 z m 6.96892,-8.19945 v 5.528772 l -3.87717,-5.528772 h -1.86245 v 8.187736 h 1.86245 V 41.90489 l 3.87717,5.528772 h 1.86244 v -8.187736 z m 2.54121,-0.01171 v 1.87416 h 3.01037 v 6.32529 h 1.86244 v -6.32529 h 3.01037 v -1.87416 z m 10.42441,6.337004 v -1.40562 h 4.7791 v -1.87416 h -4.7791 v -1.183064 h 4.96652 v -1.87416 h -6.82897 v 8.19945 h 6.94611 v -1.862446 z m 7.99971,0 v -6.337004 h -1.86245 v 8.19945 h 6.66498 v -1.862446 z m 7.34373,0 v -6.337004 h -1.86245 v 8.19945 h 6.66499 v -1.862446 z m 7.34374,1.87416 v -8.19945 h -1.86245 v 8.19945 z m 9.3819,-4.615119 h -4.80254 v 1.87416 h 2.63554 c -0.31627,0.655956 -0.91365,1.159636 -1.89759,1.159636 -1.49933,0 -2.55354,-1.030788 -2.55354,-2.530116 0,-1.487614 1.05421,-2.518402 2.55354,-2.518402 0.92537,0 1.72189,0.398259 2.167,1.089355 l 1.56961,-0.995647 c -0.38655,-0.609102 -0.92537,-1.112783 -1.56961,-1.452474 -0.64424,-0.339692 -1.38219,-0.515394 -2.167,-0.515394 -1.22992,0 -2.35441,0.445113 -3.16264,1.253344 -0.80823,0.808232 -1.25335,1.921014 -1.25335,3.150932 0,1.218204 0.44512,2.330986 1.25335,3.139218 0.80823,0.808231 1.93272,1.253344 3.16264,1.253344 0.6091,0 1.17135,-0.117135 1.68675,-0.339691 0.37483,-0.175703 0.72623,-0.409973 1.03078,-0.691097 l 0.55054,0.737951 h 0.79652 v -4.099725 c 0,0 0,0 0,0 v 0 z m 2.91604,2.740959 v -1.40562 h 4.77911 v -1.87416 h -4.77911 v -1.183064 h 4.96652 v -1.87416 h -6.82897 v 8.19945 h 6.94611 v -1.862446 z m 11.87689,-6.32529 v 5.528772 l -3.87717,-5.528772 h -1.86244 v 8.187736 h 1.86244 V 41.90489 l 3.87717,5.528772 h 1.86245 v -8.187736 z m 9.34676,5.528772 c -0.44512,0.691096 -1.24163,1.089355 -2.167,1.089355 -1.49933,0 -2.55354,-1.030788 -2.55354,-2.518402 0,-1.499328 1.05421,-2.530116 2.55354,-2.530116 0.92537,0 1.72188,0.398259 2.167,1.089355 l 1.56961,-0.995647 c -0.38655,-0.609102 -0.92537,-1.112783 -1.56961,-1.452474 -0.64425,-0.339692 -1.3822,-0.515394 -2.167,-0.515394 -1.22992,0 -2.35441,0.445113 -3.16265,1.253344 -0.80823,0.808232 -1.25334,1.921014 -1.25334,3.139218 0,1.229918 0.44511,2.3427 1.25334,3.150932 0.80824,0.808231 1.93273,1.253344 3.16265,1.253344 0.7848,0 1.52275,-0.175702 2.167,-0.515394 0.64424,-0.339691 1.18306,-0.843372 1.56961,-1.452474 z m 4.19281,0.796518 v -1.40562 h 4.7791 v -1.87416 h -4.7791 v -1.183064 h 4.96652 v -1.87416 h -6.82897 v 8.19945 h 6.94611 v -1.862446 z"
           id="text5"
           style="font-size:11.7135px;font-family:Romero;-inkscape-font-specification:'Romero, Normal';letter-spacing:0.0462375px;word-spacing:-1.70835px;stroke-width:0.924751"
           transform="scale(1.0043691,0.9956499)"
           aria-label="Language &amp; Data Intelligence" />
        <g
           id="text2"
           style="font-style:italic;font-size:47.6341px;font-family:Panton;-inkscape-font-specification:'Panton, Italic';letter-spacing:0.0371416px;word-spacing:-7.42833px;fill:#ff6600;stroke-width:0.742833"
           aria-label="II LDI LAB.">
          <path
             d="M 5.3533087,4.6892396 0.06592338,34.698724 c -0.23817051,1.429023 0.14290231,1.905364 1.57192532,1.905364 h 5.6208241 c 1.429023,0 2.0006322,-0.476341 2.2388028,-1.905364 L 14.784861,4.6892396 C 15.070665,3.2602165 14.641959,2.7838755 13.212935,2.7838755 H 7.5921115 c -1.4290231,0 -1.9529982,0.476341 -2.2388028,1.9053641 z m 14.3273363,0 -5.287385,30.0094844 c -0.238171,1.429023 0.142902,1.905364 1.571925,1.905364 h 5.620824 c 1.429023,0 2.000632,-0.476341 2.238803,-1.905364 L 29.112197,4.6892396 C 29.398002,3.2602165 28.969295,2.7838755 27.540272,2.7838755 h -5.620824 c -1.429023,0 -1.952998,0.476341 -2.238803,1.9053641 z"
             id="path2" />
          <path
             style="fill:#000000"
             d="m 43.002885,2.7838755 h -5.382654 c -1.524291,0 -2.0959,0.5239751 -2.334071,2.0006323 L 29.998775,34.603456 c -0.23817,1.476657 0.142902,2.000632 1.667194,2.000632 h 18.863104 c 1.524291,0 2.095901,-0.523975 2.381705,-2.000632 l 0.762146,-4.334704 C 53.958728,28.744461 53.530021,28.26812 52.00573,28.26812 H 40.573546 L 44.717713,4.7845078 C 44.955883,3.3078506 44.527176,2.7838755 43.002885,2.7838755 Z m 32.047252,0 H 63.47505 c -1.524291,0 -2.095901,0.5239751 -2.381705,2.0006323 L 55.853594,34.603456 c -0.285805,1.476657 0.142902,2.000632 1.667193,2.000632 h 11.717989 c 9.431552,0 15.290547,-4.382338 16.767204,-12.623037 l 1.238487,-7.145115 C 88.721124,8.5952359 84.481689,2.7838755 75.050137,2.7838755 Z m 2.858046,13.4804505 -1.190853,6.859311 c -0.619243,3.382021 -2.572241,5.144483 -6.430604,5.144483 H 66.38073 l 3.048583,-17.148277 h 3.858362 c 3.858362,0 5.239751,1.762462 4.620508,5.144483 z M 93.426414,4.6892396 88.139028,34.698724 c -0.23817,1.429023 0.142903,1.905364 1.571926,1.905364 h 5.620824 c 1.429023,0 2.000632,-0.476341 2.238802,-1.905364 l 5.28739,-30.0094844 c 0.2858,-1.4290231 -0.14291,-1.9053641 -1.57193,-1.9053641 h -5.620824 c -1.429023,0 -1.952998,0.476341 -2.238802,1.9053641 z M 116.74865,2.7838755 H 111.366 c -1.52429,0 -2.0959,0.5239751 -2.33407,2.0006323 l -5.28739,29.8189482 c -0.23817,1.476657 0.14291,2.000632 1.6672,2.000632 h 18.8631 c 1.52429,0 2.0959,-0.523975 2.38171,-2.000632 l 0.76214,-4.334704 c 0.28581,-1.524291 -0.1429,-2.000632 -1.66719,-2.000632 h -11.43219 l 4.14417,-23.4836122 c 0.23817,-1.4766572 -0.19054,-2.0006323 -1.71483,-2.0006323 z M 159.75174,34.65109 154.08328,4.3558009 c -0.23817,-1.2384867 -0.85741,-1.5719254 -2.2388,-1.5719254 h -5.38265 c -1.38139,0 -2.04827,0.2858046 -2.76278,1.6671936 L 127.40819,34.65109 c -0.71451,1.28612 -0.57161,1.952998 0.90504,1.952998 h 5.23976 c 2.3817,0 3.09621,-0.523975 3.81072,-2.000632 l 1.6672,-3.429656 h 10.3366 l 0.47634,3.429656 c 0.1429,1.476657 0.76214,2.000632 3.19148,2.000632 h 4.95395 c 1.47666,0 2.00063,-0.666878 1.76246,-1.952998 z m -12.00379,-16.529034 0.76214,5.57319 h -5.90662 l 2.71514,-5.620824 c 1.52429,-3.191485 2.14353,-6.62114 2.14353,-6.62114 h 0.42871 c 0,0 -0.52397,3.429655 -0.1429,6.668774 z M 183.98699,2.7362414 H 170.0302 c -1.52429,0 -2.0959,0.5239751 -2.38171,2.0482664 l -5.23975,29.8189482 c -0.2858,1.476657 0.1429,2.000632 1.6672,2.000632 h 14.29023 c 6.71641,0 12.05142,-2.90568 13.14701,-9.05048 0.71451,-4.144166 -0.47634,-7.240383 -3.28675,-8.574138 l 0.0476,-0.190536 c 2.71514,-1.667194 4.0489,-3.47729 4.66814,-6.668775 1.00032,-5.6684577 -2.33407,-9.3839176 -8.95521,-9.3839176 z m -0.85741,10.3366006 c -0.33344,1.857729 -1.47666,2.572241 -3.38202,2.572241 h -4.57288 l 0.90505,-5.239751 h 4.57287 c 1.953,0 2.81042,0.80978 2.47698,2.66751 z m -1.23849,13.004109 c -0.33344,2.000633 -1.52429,2.810412 -3.52492,2.810412 h -5.52556 l 1.00032,-5.57319 h 5.47792 c 2.04827,0 2.95331,0.857414 2.57224,2.762778 z m 17.89998,1.476657 h -1.81009 c -2.81042,0 -3.906,0.952683 -4.38234,3.763095 l -0.38107,1.952998 c -0.47635,2.810412 0.2858,3.71546 3.14385,3.71546 h 1.81009 c 2.81041,0 3.85836,-0.905048 4.38234,-3.71546 l 0.33344,-1.952998 c 0.52397,-2.810412 -0.23817,-3.763095 -3.09622,-3.763095 z"
             id="path3" />
        </g>
      </g>
    </g>
  </g>
</svg>
