<?xml version="1.0" encoding="UTF-8" standalone="no"?>
<!-- Created with Inkscape (http://www.inkscape.org/) -->

<svg
   width="240"
   height="64"
   viewBox="0 0 203.47122 54.258992"
   version="1.1"
   id="svg1"
   inkscape:version="1.3 (0e150ed6c4, 2023-07-21)"
   sodipodi:docname="logo3.svg"
   xmlns:inkscape="http://www.inkscape.org/namespaces/inkscape"
   xmlns:sodipodi="http://sodipodi.sourceforge.net/DTD/sodipodi-0.dtd"
   xmlns="http://www.w3.org/2000/svg"
   xmlns:svg="http://www.w3.org/2000/svg">
  <sodipodi:namedview
     id="namedview1"
     pagecolor="#ffffff"
     bordercolor="#111111"
     borderopacity="1"
     inkscape:showpageshadow="0"
     inkscape:pageopacity="0"
     inkscape:pagecheckerboard="1"
     inkscape:deskcolor="#d1d1d1"
     inkscape:document-units="mm"
     inkscape:zoom="9.1667148"
     inkscape:cx="111.27214"
     inkscape:cy="12.818115"
     inkscape:window-width="3840"
     inkscape:window-height="2054"
     inkscape:window-x="1909"
     inkscape:window-y="-11"
     inkscape:window-maximized="1"
     inkscape:current-layer="g2" />
  <defs
     id="defs1">
    <inkscape:perspective
       sodipodi:type="inkscape:persp3d"
       inkscape:vp_x="0 : 27.129496 : 1"
       inkscape:vp_y="0 : 1000 : 0"
       inkscape:vp_z="203.47122 : 27.129496 : 1"
       inkscape:persp3d-origin="101.73561 : 18.086331 : 1"
       id="perspective11" />
    <rect
       x="13.576379"
       y="187.60088"
       width="294.36057"
       height="183.89822"
       id="rect3" />
    <rect
       x="37.643597"
       y="229.56422"
       width="177.72714"
       height="27.769867"
       id="rect2" />
    <rect
       x="-61.710812"
       y="225.86157"
       width="160.4481"
       height="41.963352"
       id="rect1" />
  </defs>
  <g
     inkscape:label="Layer 1"
     inkscape:groupmode="layer"
     id="layer1">
    <text
       xml:space="preserve"
       transform="matrix(0.26458333,0,0,0.26458333,-2.8863344,-38.657215)"
       id="text1"
       style="white-space:pre;shape-inside:url(#rect1);display:inline;fill:#000000" />
    <text
       xml:space="preserve"
       transform="matrix(0.26458333,0,0,0.26458333,-2.8863344,-38.657215)"
       id="text3"
       style="white-space:pre;shape-inside:url(#rect3);display:inline;fill:#000000" />
    <g
       id="g8"
       transform="translate(0,2.5433902)">
      <text
         xml:space="preserve"
         style="font-style:italic;font-variant:normal;font-weight:900;font-stretch:normal;font-size:54.3649px;font-family:'Uni Sans';-inkscape-font-specification:'Uni Sans, Heavy Italic';font-variant-ligatures:normal;font-variant-caps:normal;font-variant-numeric:normal;font-variant-east-asian:normal;word-spacing:-9.01509px;fill:#000000;stroke-width:0.318121"
         x="11.4395"
         y="28.090752"
         id="text4"
         transform="scale(1.005626,0.99440548)"><tspan
           sodipodi:role="line"
           style="font-style:italic;font-variant:normal;font-weight:normal;font-stretch:normal;font-size:54.3649px;font-family:Panton;-inkscape-font-specification:'Panton, Italic';font-variant-ligatures:normal;font-variant-caps:normal;font-variant-numeric:normal;font-variant-east-asian:normal;letter-spacing:0.050967px;word-spacing:-9.01509px;stroke-width:0.318121"
           x="0"
           y="0"
           id="tspan7"
           rotate="0"><tspan
             id="tspan6"
             style="font-style:italic;font-variant:normal;font-weight:normal;font-stretch:normal;font-size:54.3649px;font-family:Panton;-inkscape-font-specification:'Panton, Italic';font-variant-ligatures:normal;font-variant-caps:normal;font-variant-numeric:normal;font-variant-east-asian:normal;letter-spacing:0.050967px;word-spacing:-9.01509px;stroke-width:0.318121"
             rotate="0" /></tspan></text>
      <g
         id="g2"
         transform="matrix(1.0021182,0,0,1.1728286,0,-4.9047356)">
        <path
           d="M 1.8624465,44.858398 V 38.521394 H 0 v 8.19945 h 6.6649815 v -1.862446 z m 10.1666825,-6.32529 h -1.862447 l -3.3969149,8.187736 h 1.8624465 l 0.491967,-1.17135 H 13.07163 l 0.491967,1.17135 h 1.862447 z m -2.1318574,5.142226 1.1947774,-2.893234 1.20649,2.893234 z M 21.762435,38.533108 V 44.06188 L 17.885266,38.533108 H 16.02282 v 8.187736 h 1.862446 v -5.528772 l 3.877169,5.528772 h 1.862446 v -8.187736 z m 11.244344,3.584331 h -4.802535 v 1.87416 h 2.635538 c -0.316265,0.655956 -0.913653,1.159636 -1.897587,1.159636 -1.499328,0 -2.553543,-1.030788 -2.553543,-2.530116 0,-1.487614 1.054215,-2.518402 2.553543,-2.518402 0.925366,0 1.721884,0.398259 2.166997,1.089355 l 1.569609,-0.995647 c -0.386545,-0.609102 -0.925366,-1.112783 -1.569609,-1.452474 -0.644242,-0.339692 -1.382193,-0.515394 -2.166997,-0.515394 -1.229918,0 -2.354414,0.445113 -3.162645,1.253344 -0.808232,0.808232 -1.253345,1.921014 -1.253345,3.150932 0,1.218204 0.445113,2.330986 1.253345,3.139218 0.808231,0.808231 1.932727,1.253344 3.162645,1.253344 0.609102,0 1.17135,-0.117135 1.686744,-0.339691 0.374832,-0.175703 0.726237,-0.409973 1.030788,-0.691097 l 0.550534,0.737951 h 0.796518 v -4.099725 c 0,0 0,0 0,0 v 0 z m 6.406662,-3.584331 v 4.790821 c 0,1.218204 -0.609102,1.827306 -1.803879,1.827306 -1.194777,0 -1.803879,-0.609102 -1.803879,-1.827306 v -4.790821 h -1.862447 v 4.790821 c 0,1.147923 0.363119,2.096717 1.065929,2.752673 0.644242,0.620815 1.546182,0.948793 2.600397,0.948793 1.054215,0 1.956154,-0.327978 2.600397,-0.948793 0.70281,-0.655956 1.077642,-1.60475 1.077642,-2.752673 v -4.790821 z m 7.179754,0 h -1.862447 l -3.396915,8.187736 h 1.862447 l 0.491967,-1.17135 h 3.947449 l 0.491967,1.17135 h 1.862447 z m -2.131857,5.142226 1.194777,-2.893234 1.20649,2.893234 z m 13.809594,-1.557895 h -4.802535 v 1.87416 h 2.635537 c -0.316264,0.655956 -0.913653,1.159636 -1.897587,1.159636 -1.499328,0 -2.553543,-1.030788 -2.553543,-2.530116 0,-1.487614 1.054215,-2.518402 2.553543,-2.518402 0.925367,0 1.721885,0.398259 2.166998,1.089355 l 1.569609,-0.995647 c -0.386546,-0.609102 -0.925367,-1.112783 -1.569609,-1.452474 -0.644243,-0.339692 -1.382193,-0.515394 -2.166998,-0.515394 -1.229917,0 -2.354413,0.445113 -3.162645,1.253344 -0.808231,0.808232 -1.253344,1.921014 -1.253344,3.150932 0,1.218204 0.445113,2.330986 1.253344,3.139218 0.808232,0.808231 1.932728,1.253344 3.162645,1.253344 0.609102,0 1.17135,-0.117135 1.686744,-0.339691 0.374832,-0.175703 0.726237,-0.409973 1.030788,-0.691097 l 0.550535,0.737951 h 0.796518 v -4.099725 c 0,0 0,0 0,0 v 0 z m 2.916038,2.740959 v -1.40562 h 4.779108 v -1.87416 H 61.18697 v -1.183064 h 4.966524 v -1.87416 h -6.82897 v 8.19945 h 6.946105 v -1.862446 z m 14.958736,-0.128849 c 0.210843,-0.421686 0.363118,-0.890226 0.433399,-1.370479 l -1.721884,-0.269411 c -0.04685,0.281124 -0.117135,0.538821 -0.23427,0.773091 -0.082,-0.117135 -0.175703,-0.23427 -0.257697,-0.363118 -0.163989,-0.23427 -0.316265,-0.46854 -0.445113,-0.691097 0.363118,-0.210843 0.714523,-0.433399 1.007361,-0.691096 0.281124,-0.23427 0.491967,-0.480254 0.644242,-0.737951 0.187416,-0.327978 0.292838,-0.679383 0.292838,-1.042501 0,-0.620816 -0.23427,-1.17135 -0.655956,-1.557896 -0.363119,-0.351405 -0.878513,-0.550534 -1.393907,-0.550534 -1.323625,0 -2.225565,1.112782 -2.225565,2.764386 0,0.339691 0.04685,0.691096 0.140562,1.054215 -0.292837,0.187416 -0.585675,0.386545 -0.843372,0.609102 -0.655956,0.573961 -0.983934,1.241631 -0.983934,1.956154 0,0.316265 0.05857,0.620816 0.187416,0.90194 0.140562,0.292837 0.327978,0.538821 0.585675,0.749664 0.491967,0.409972 1.159637,0.632529 1.932728,0.632529 0.515394,0 1.019074,-0.09371 1.475901,-0.281124 0.163989,-0.05857 0.316264,-0.128849 0.46854,-0.210843 0.245983,0.245983 0.46854,0.456826 0.679383,0.644242 l 1.17135,-1.288485 c -0.163989,-0.152275 -0.363119,-0.327978 -0.562248,-0.538821 0.105421,-0.152275 0.210843,-0.316264 0.304551,-0.491967 z m -3.537477,0.421686 c -0.351405,0 -0.644243,-0.08199 -0.808232,-0.222556 -0.105421,-0.08199 -0.163989,-0.187416 -0.163989,-0.316265 0,-0.316264 0.339692,-0.632529 0.773091,-0.925366 0.163989,0.26941 0.339692,0.550534 0.527108,0.819945 0.128848,0.187416 0.26941,0.363118 0.398259,0.527107 -0.222557,0.08199 -0.46854,0.117135 -0.726237,0.117135 z m 0.726237,-4.029444 c 0,-0.04685 0,-0.09371 0,-0.128848 0,-0.363119 0.07028,-0.66767 0.187416,-0.855086 0.09371,-0.140562 0.175702,-0.163989 0.292837,-0.163989 0.05857,0 0.304551,0.01171 0.304551,0.363119 0,0.222556 -0.351405,0.50368 -0.784804,0.784804 z M 87.426401,39.692744 C 86.665023,38.94308 85.622522,38.533108 84.474599,38.533108 h -2.178711 v -0.01171 h -1.862447 v 8.211164 h 1.862447 v -0.01171 h 2.178711 c 1.147923,0 2.190424,-0.409972 2.951802,-1.159636 0.749664,-0.761378 1.17135,-1.792166 1.17135,-2.940089 0,-1.136209 -0.421686,-2.166997 -1.17135,-2.928375 z m -2.951802,5.165654 h -2.178711 v -4.462844 h 2.178711 c 1.323625,0 2.248992,0.913653 2.248992,2.225565 0,1.323626 -0.925367,2.237279 -2.248992,2.237279 z m 9.159321,-6.32529 h -1.862446 l -3.396915,8.187736 h 1.862446 l 0.491967,-1.17135 h 3.94745 l 0.491967,1.17135 h 1.862446 z m -2.131857,5.142226 1.194777,-2.893234 1.206491,2.893234 z m 4.462242,-5.15394 v 1.87416 h 3.010369 v 6.32529 h 1.862446 v -6.32529 h 3.01037 v -1.87416 z m 12.076015,0.01171 h -1.86244 l -3.39692,8.187736 h 1.86245 l 0.49196,-1.17135 h 3.94745 l 0.49197,1.17135 h 1.86245 z m -2.13185,5.142226 1.19477,-2.893234 1.20649,2.893234 z m 10.76529,3.057224 v -8.19945 h -1.86245 v 8.19945 z m 6.96892,-8.19945 v 5.528772 l -3.87717,-5.528772 h -1.86245 v 8.187736 h 1.86245 v -5.528772 l 3.87717,5.528772 h 1.86244 v -8.187736 z m 2.54121,-0.01171 v 1.87416 h 3.01037 v 6.32529 h 1.86244 v -6.32529 h 3.01037 v -1.87416 z m 10.42441,6.337004 v -1.40562 h 4.7791 v -1.87416 h -4.7791 v -1.183064 h 4.96652 v -1.87416 h -6.82897 v 8.19945 h 6.94611 v -1.862446 z m 7.99971,0 v -6.337004 h -1.86245 v 8.19945 h 6.66498 v -1.862446 z m 7.34373,0 v -6.337004 h -1.86245 v 8.19945 h 6.66499 v -1.862446 z m 7.34374,1.87416 v -8.19945 h -1.86245 v 8.19945 z m 9.3819,-4.615119 h -4.80254 v 1.87416 h 2.63554 c -0.31627,0.655956 -0.91365,1.159636 -1.89759,1.159636 -1.49933,0 -2.55354,-1.030788 -2.55354,-2.530116 0,-1.487614 1.05421,-2.518402 2.55354,-2.518402 0.92537,0 1.72189,0.398259 2.167,1.089355 l 1.56961,-0.995647 c -0.38655,-0.609102 -0.92537,-1.112783 -1.56961,-1.452474 -0.64424,-0.339692 -1.38219,-0.515394 -2.167,-0.515394 -1.22992,0 -2.35441,0.445113 -3.16264,1.253344 -0.80823,0.808232 -1.25335,1.921014 -1.25335,3.150932 0,1.218204 0.44512,2.330986 1.25335,3.139218 0.80823,0.808231 1.93272,1.253344 3.16264,1.253344 0.6091,0 1.17135,-0.117135 1.68675,-0.339691 0.37483,-0.175703 0.72623,-0.409973 1.03078,-0.691097 l 0.55054,0.737951 h 0.79652 v -4.099725 c 0,0 0,0 0,0 v 0 z m 2.91604,2.740959 v -1.40562 h 4.77911 v -1.87416 h -4.77911 v -1.183064 h 4.96652 v -1.87416 h -6.82897 v 8.19945 h 6.94611 v -1.862446 z m 11.87689,-6.32529 v 5.528772 l -3.87717,-5.528772 h -1.86244 v 8.187736 h 1.86244 v -5.528772 l 3.87717,5.528772 h 1.86245 v -8.187736 z m 9.34676,5.528772 c -0.44512,0.691096 -1.24163,1.089355 -2.167,1.089355 -1.49933,0 -2.55354,-1.030788 -2.55354,-2.518402 0,-1.499328 1.05421,-2.530116 2.55354,-2.530116 0.92537,0 1.72188,0.398259 2.167,1.089355 l 1.56961,-0.995647 c -0.38655,-0.609102 -0.92537,-1.112783 -1.56961,-1.452474 -0.64425,-0.339692 -1.3822,-0.515394 -2.167,-0.515394 -1.22992,0 -2.35441,0.445113 -3.16265,1.253344 -0.80823,0.808232 -1.25334,1.921014 -1.25334,3.139218 0,1.229918 0.44511,2.3427 1.25334,3.150932 0.80824,0.808231 1.93273,1.253344 3.16265,1.253344 0.7848,0 1.52275,-0.175702 2.167,-0.515394 0.64424,-0.339691 1.18306,-0.843372 1.56961,-1.452474 z m 4.19281,0.796518 v -1.40562 h 4.7791 v -1.87416 h -4.7791 v -1.183064 h 4.96652 v -1.87416 h -6.82897 v 8.19945 h 6.94611 v -1.862446 z"
           id="text5"
           style="font-size:11.7135px;font-family:Romero;-inkscape-font-specification:'Romero, Normal';letter-spacing:0.0462375px;word-spacing:-1.70835px;stroke-width:0.924751"
           transform="scale(1.0043691,0.9956499)"
           aria-label="Language &amp; Data Intelligence" />
        <g
           id="text2"
           style="font-style:italic;font-size:45.9279px;font-family:Panton;-inkscape-font-specification:'Panton, Italic';letter-spacing:0.0358113px;word-spacing:-3.77002px;fill:#ff6600;stroke-width:0.716226"
           aria-label="II LDI LAB.">
          <path
             d="M 5.3461406,5.031176 0.24814384,33.965752 c -0.2296395,1.377837 0.13778369,1.837116 1.51562066,1.837116 h 5.419492 c 1.3778369,0 1.9289717,-0.459279 2.1586112,-1.837116 L 14.439864,5.031176 C 14.715432,3.653339 14.302081,3.19406 12.924244,3.19406 H 7.5047518 c -1.377837,0 -1.8830439,0.459279 -2.1586112,1.837116 z m 13.8141464,0 -5.097997,28.934576 c -0.22964,1.377837 0.137784,1.837116 1.515621,1.837116 h 5.419492 c 1.377836,0 1.928971,-0.459279 2.158611,-1.837116 L 28.25401,5.031176 C 28.529578,3.653339 28.116227,3.19406 26.73839,3.19406 h -5.419492 c -1.377837,0 -1.883044,0.459279 -2.158611,1.837116 z"
             id="path3" />
          <path
             style="fill:#000000"
             d="m 45.039386,3.19406 h -5.189853 c -1.469692,0 -2.020827,0.5052069 -2.250467,1.9289718 L 32.50107,33.873896 c -0.22964,1.423765 0.137783,1.928972 1.607476,1.928972 h 18.187448 c 1.469693,0 2.020827,-0.505207 2.296395,-1.928972 l 0.734846,-4.179439 c 0.275568,-1.469692 -0.137783,-1.928971 -1.607476,-1.928971 H 42.697063 L 46.69279,5.1230318 C 46.92243,3.6992669 46.509079,3.19406 45.039386,3.19406 Z m 30.899349,0 H 64.778256 c -1.469693,0 -2.020828,0.5052069 -2.296395,1.9289718 L 57.429792,33.873896 c -0.275567,1.423765 0.137784,1.928972 1.607477,1.928972 h 11.298263 c 9.093723,0 14.742855,-4.225367 16.16662,-12.170893 L 87.696277,16.74279 C 89.120042,8.7972636 85.032459,3.19406 75.938735,3.19406 Z m 2.755674,12.997595 -1.148197,6.613618 c -0.597063,3.26088 -2.480107,4.960213 -6.200267,4.960213 h -3.766087 l 2.939385,-16.534044 h 3.72016 c 3.72016,0 5.052069,1.699332 4.455006,4.960213 z M 93.656787,5.031176 88.55879,33.965752 c -0.22964,1.377837 0.137784,1.837116 1.515621,1.837116 h 5.419492 c 1.377837,0 1.928971,-0.459279 2.158611,-1.837116 L 102.75051,5.031176 C 103.02608,3.653339 102.61273,3.19406 101.23489,3.19406 h -5.419492 c -1.377837,0 -1.883044,0.459279 -2.158611,1.837116 z M 119.53589,3.19406 h -5.18985 c -1.4697,0 -2.02083,0.5052069 -2.25047,1.9289718 l -5.098,28.7508642 c -0.22964,1.423765 0.13779,1.928972 1.60748,1.928972 h 18.18745 c 1.46969,0 2.02082,-0.505207 2.29639,-1.928972 l 0.73485,-4.179439 c 0.27556,-1.469692 -0.13779,-1.928971 -1.60748,-1.928971 H 117.19357 L 121.18929,5.1230318 C 121.41893,3.6992669 121.00558,3.19406 119.53589,3.19406 Z M 160.99865,33.919824 155.53323,4.7096807 C 155.30359,3.5155553 154.70653,3.19406 153.37462,3.19406 h -5.18985 c -1.33191,0 -1.9749,0.2755674 -2.66382,1.6074765 L 129.81361,33.919824 c -0.68892,1.240053 -0.55114,1.883044 0.87263,1.883044 h 5.05207 c 2.29639,0 2.98531,-0.505207 3.67423,-1.928972 l 1.60747,-3.306809 h 9.96636 l 0.45928,3.306809 c 0.13778,1.423765 0.73484,1.928972 3.07717,1.928972 h 4.7765 c 1.42376,0 1.92897,-0.642991 1.69933,-1.883044 z m -11.57383,-15.936981 0.73485,5.373564 h -5.69506 l 2.61789,-5.419492 c 1.46969,-3.077169 2.06675,-6.383977 2.06675,-6.383977 h 0.41335 c 0,0 -0.5052,3.306808 -0.13778,6.429905 z M 184.36583,3.1481321 h -13.45688 c -1.46969,0 -2.02082,0.5052069 -2.29639,1.9748997 l -5.05207,28.7508642 c -0.27557,1.423765 0.13778,1.928972 1.60748,1.928972 h 13.77837 c 6.47583,0 11.61976,-2.801602 12.6761,-8.726301 0.68892,-3.995727 -0.45928,-6.98104 -3.16903,-8.267022 l 0.0459,-0.183711 c 2.61789,-1.607477 3.90387,-3.352737 4.50093,-6.429906 0.96449,-5.4654198 -2.25046,-9.0477959 -8.63444,-9.0477959 z m -0.8267,9.9663539 c -0.3215,1.791188 -1.42377,2.480107 -3.26088,2.480107 h -4.40908 l 0.87263,-5.052069 h 4.40908 c 1.88304,0 2.70974,0.780774 2.38825,2.571962 z M 182.345,25.652802 c -0.32149,1.928972 -1.46969,2.709746 -3.39866,2.709746 h -5.32764 l 0.96449,-5.373564 h 5.28171 c 1.97489,0 2.84752,0.826702 2.4801,2.663818 z m 17.25882,1.423765 h -1.74527 c -2.70974,0 -3.76608,0.918558 -4.22536,3.628304 l -0.36742,1.883044 c -0.45928,2.709746 0.27556,3.582376 3.03124,3.582376 h 1.74526 c 2.70974,0 3.72016,-0.87263 4.22536,-3.582376 l 0.3215,-1.883044 c 0.50521,-2.709746 -0.22964,-3.628304 -2.98531,-3.628304 z"
             id="path4" />
        </g>
      </g>
    </g>
  </g>
</svg>
